<svg xmlns="http://www.w3.org/2000/svg" viewBox="0 0 392.282 392.282">
  <path d="M154.524 254.296c-32 0-54.84-20.32-71.48-35.16-10.52-9.4-19.6-17.48-26.92-17.52h-8.4l.48-8.4c4.052-72.164 63.72-128.624 136-128.68 2.828 0 5.628.08 8.4.24h2.84l2.08 1.92c22.44 20.68 22.88 43.6 1.36 68a284.095 284.095 0 01-29.52 27.6c-13.88 12-27 22.96-31.44 32.96a12.954 12.954 0 00-.2 12.88c2.72 4.88 9.24 9.68 19.4 14.16a89.744 89.744 0 0121.88 12.36h1.08l4.84 6.24-2.56 9.88h-4.76a61.015 61.015 0 01-20.64 3.36l-2.44.16z" fill="#fff"/>
  <path d="M184.324 337.136c-73.42.004-133.656-58.144-136.24-131.52l-.28-8.52 8.52.24c9.24.24 18.28 8.32 29.72 18.52 17 15.16 38.12 34 68.4 34h2.4a53.819 53.819 0 0020.36-3.6c1.52-.8 2.4-1.64 2.6-2.48s.32-1.28-1.32-3.28-7.2-7-23.12-14.04a46.11 46.11 0 01-19.28-13.84 18.32 18.32 0 01-1.84-18.92c4.88-10.96 17.68-21.88 32.56-34.52a283.103 283.103 0 0028.92-27.04c17.76-20.24 20-36 8-52l-12.56-16.8 20.56 4a135.516 135.516 0 0155.08 24.8l4.44 3.36-10.4 34.44 11.04 11.04 16.2-29.4 7.36 10.36a135.382 135.382 0 0122 49.4l1.32 6.04-5.48 2.76c-21.28 10.8-22 16.92-23.36 28-1.48 12-3.48 28.88-39.16 58.64a102.78 102.78 0 00-24.8 27.32 45.074 45.074 0 00-5.08 30.4l1.24 7.64-7.36 1.68a136.94 136.94 0 01-30.44 3.32z" fill="#fff"/>
  <path d="M326.364 140.656l6.76-22.36-28.64-26.96-31.6 57-17.08-17.08 20.28-66.76-24.32-22.92a16.362 16.362 0 01-4.2-18.4 20.498 20.498 0 0110.84-10.84h.4a16.372 16.372 0 015.84-1.08c4.58.084 8.92 2.052 12 5.44l22.88 24.28 66.84-20.2 17.08 17.08-57 31.48 26.96 28.6 22.4-6.76 13.88 13.88-27.16 15.08-4.84 2.4-2.2 4.48-15.4 27.52-13.72-13.88zM216.084 324.136a49.485 49.485 0 015.84-32 106.83 106.83 0 0126.16-28.64c34.32-28.64 36-43.68 37.6-55.8 1.32-10.92 3.68-19.4 22.32-29.64l10.36-5.68 1.28 11.76a138.228 138.228 0 011 16.72 135.439 135.439 0 01-40 96.4 136.916 136.916 0 01-54.04 33.2l-9.08 2.96-1.44-9.28z" fill="#fff"/>
  <path d="M364.764 17.096l-63.72 19.28-21.44-22.76a19.399 19.399 0 00-22.08-5.24h-.36a23.606 23.606 0 00-12.84 12.84 21.69 21.69 0 00-1.28 4.72l-2.44-.84c-3.16-1.016-6.544.72-7.56 3.88s.72 6.544 3.88 7.56c3.08 1 6.16 2.12 9.24 3.28a22.913 22.913 0 003.24 4l22.68 21.44-6.48 21.4c-63.38-45.208-151.404-30.48-196.616 32.9s-30.48 151.404 32.9 196.616 151.404 30.48 196.616-32.9c36.052-50.54 34.792-118.716-3.1-167.896l10.24-18.48 23.76 22.4-5.72 18.92a5.8 5.8 0 001.32 5.92s11.72 11.6 12 12a5.802 5.802 0 007.948-2.028c.016-.032.036-.06.052-.092l15.64-28.68 28.24-15.4a5.838 5.838 0 001.72-9.4l-10.52-11.16a5.803 5.803 0 00-5.8-1.44l-19.12 5.8-22.4-23.76 50.28-28a5.838 5.838 0 001.72-9.4l-14.12-14.12a5.846 5.846 0 00-5.88-1.36zm-271.68 92.88a128.446 128.446 0 0191-37.6c2.668 0 5.332.08 8 .24 22.68 20.92 16 40 .8 57.2a280.577 280.577 0 01-28.8 26.56c-14.76 12.56-28.52 24.28-33.72 36-6.16 13.92-1.64 26.52 23.24 37.52 12.44 5.52 19.2 9.8 21.84 13.04.36.44.72 0 .64 0-.276.02-.548.088-.8.2a49.712 49.712 0 01-18.88 3.24c-30.16 1.28-51.64-18-68.32-32.92-12-10.68-21.96-19.56-32.32-19.64a128.446 128.446 0 0137.32-83.84zm220 91.12c-.04 55.792-35.952 105.232-89 122.52a41.977 41.977 0 014.92-27.24 99.138 99.138 0 0124-26.4c36.92-30.8 39-48 40.6-61.24 1-8.36 1.76-14.6 18.28-23.68a130.47 130.47 0 011 16l.2.04zm-7.48-43.28a127.791 127.791 0 014.4 15.4c-25.16 12.8-26.28 21.92-27.8 34.36-1.36 11.2-3.12 25.84-36.48 53.68a109.374 109.374 0 00-26.8 29.72 53.056 53.056 0 00-6 35.72c-69.388 15.86-138.496-27.528-154.36-96.92a128.707 128.707 0 01-3.16-24.16c6.36 0 14.6 7.56 24.72 16.56 18.32 16.36 41.76 37.24 76.68 36a60.069 60.069 0 0024-4.56 11.998 11.998 0 006.64-7.52 11.436 11.436 0 00-2.88-10.44c-3.76-4.6-12-10.04-26.16-16.36-16.92-7.48-20.6-14.76-17.28-22.2 4-9.36 16.88-20 30.56-32a291.185 291.185 0 0030.04-28c16.72-19.04 25.32-40 8.32-62.52a128.034 128.034 0 0152 23.64l-9.2 30.36a5.836 5.836 0 001.4 5.92s14.92 14.8 15.4 15.08a5.802 5.802 0 007.948-2.028c.016-.032.036-.06.052-.092l11.64-21.04a128.67 128.67 0 0116.32 31.4zm14.88-94.4a5.798 5.798 0 00-2.408 7.84c.028.052.056.108.088.16.24.44 30.84 33 30.84 33a5.802 5.802 0 005.92 1.56l19.32-5.84 3 3-18 9.96-5.16 2.56a5.755 5.755 0 00-2.64 2.68l-2.56 5.2-9.96 18-2.92-3.2 5.8-19.16a5.803 5.803 0 00-1.88-6.16l-31.56-29.68a5.799 5.799 0 00-8.2 0c-.4.44-28.8 51.6-28.8 51.6l-6.2-6.2 19.36-63.8a5.8 5.8 0 00-1.88-6.2l-25.28-23.4a8.32 8.32 0 01-2.28-9.6 12.55 12.55 0 016.52-6.48h.2a8.318 8.318 0 019.36 2.4l24 25.36a5.795 5.795 0 005.92 1.6l64-19.32 6.2 6.2-50.8 27.92z" fill="#2b1b19"/>
</svg>